<svg xmlns="http://www.w3.org/2000/svg" xmlns:svg="http://www.w3.org/2000/svg" xmlns:xlink="http://www.w3.org/1999/xlink" viewBox="0 193 2048 2048"><path d="M862 713L862 291L1239 317Q1236 339 1222 354Q1208 369 1165 377L1165 377L1165 713L1542 713L1700 508Q1700 508 1729 530.50Q1758 553 1803.50 588Q1849 623 1898.50 663Q1948 703 1989 737L1989 737Q1984 754 1967.50 762Q1951 770 1929 770L1929 770L999 770Q993 861 983.50 948.50Q974 1036 961 1122L961 1122L1360 1122L1513 975L1767 1192Q1741 1221 1677 1233L1677 1233Q1651 1635 1600.50 1853Q1550 2071 1452 2146L1452 2146Q1391 2194 1316 2215Q1241 2236 1122 2236L1122 2236Q1122 2170 1112 2119Q1102 2068 1071 2038L1071 2038Q1039 2002 978 1975Q917 1948 836 1931L836 1931L836 1909Q891 1913 957 1917Q1023 1921 1080 1924Q1137 1927 1163 1927L1163 1927Q1208 1927 1239 1905L1239 1905Q1290 1865 1324 1676.50Q1358 1488 1378 1180L1378 1180L950 1180Q905 1410 807.50 1612.50Q710 1815 533 1975.50Q356 2136 74 2241L74 2241L61 2222Q247 2086 365 1920.50Q483 1755 548.50 1568Q614 1381 640.50 1179.50Q667 978 670 770L670 770L70 770L53 713L862 713Z" class="font-svg"></path></svg>